<svg width="36" height="36" viewBox="0 0 36 36" fill="none" xmlns="http://www.w3.org/2000/svg">
<path d="M13.5 3H22.5C30 3 33 6 33 13.5V22.5C33 30 30 33 22.5 33H13.5C6 33 3 30 3 22.5V13.5C3 6 6 3 13.5 3Z" stroke="#E33F3F" stroke-width="2" stroke-linecap="round" stroke-linejoin="round"/>
<path d="M12.8551 22.9049L22.6651 13.095" stroke="#E33F3F" stroke-width="2" stroke-linecap="round" stroke-linejoin="round"/>
<path d="M13.47 15.555C14.489 15.555 15.315 14.729 15.315 13.71C15.315 12.691 14.489 11.865 13.47 11.865C12.4511 11.865 11.625 12.691 11.625 13.71C11.625 14.729 12.4511 15.555 13.47 15.555Z" stroke="#E33F3F" stroke-width="2" stroke-linecap="round" stroke-linejoin="round"/>
<path d="M23.28 24.1351C24.299 24.1351 25.125 23.309 25.125 22.29C25.125 21.2711 24.299 20.4451 23.28 20.4451C22.2611 20.4451 21.4351 21.2711 21.4351 22.29C21.4351 23.309 22.2611 24.1351 23.28 24.1351Z" stroke="#E33F3F" stroke-width="2" stroke-linecap="round" stroke-linejoin="round"/>
</svg>
