<svg width="36" height="36" viewBox="0 0 36 36" fill="none" xmlns="http://www.w3.org/2000/svg">
<path d="M12 13.5C11.6022 13.5 11.2206 13.658 10.9393 13.9393C10.658 14.2206 10.5 14.6022 10.5 15V21C10.5 21.3978 10.658 21.7794 10.9393 22.0607C11.2206 22.342 11.6022 22.5 12 22.5H24C24.3978 22.5 24.7794 22.342 25.0607 22.0607C25.342 21.7794 25.5 21.3978 25.5 21V15C25.5 14.6022 25.342 14.2206 25.0607 13.9393C24.7794 13.658 24.3978 13.5 24 13.5H12ZM21 10.5H33C33.3978 10.5 33.7794 10.342 34.0607 10.0607C34.342 9.77936 34.5 9.39782 34.5 9V3C34.5 2.60218 34.342 2.22064 34.0607 1.93934C33.7794 1.65804 33.3978 1.5 33 1.5H21C20.6022 1.5 20.2206 1.65804 19.9393 1.93934C19.658 2.22064 19.5 2.60218 19.5 3V9C19.5 9.39782 19.658 9.77936 19.9393 10.0607C20.2206 10.342 20.6022 10.5 21 10.5ZM3 10.5H15C15.3978 10.5 15.7794 10.342 16.0607 10.0607C16.342 9.77936 16.5 9.39782 16.5 9V3C16.5 2.60218 16.342 2.22064 16.0607 1.93934C15.7794 1.65804 15.3978 1.5 15 1.5H3C2.60218 1.5 2.22064 1.65804 1.93934 1.93934C1.65804 2.22064 1.5 2.60218 1.5 3V9C1.5 9.39782 1.65804 9.77936 1.93934 10.0607C2.22064 10.342 2.60218 10.5 3 10.5ZM33 25.5H21C20.6022 25.5 20.2206 25.658 19.9393 25.9393C19.658 26.2206 19.5 26.6022 19.5 27V33C19.5 33.3978 19.658 33.7794 19.9393 34.0607C20.2206 34.342 20.6022 34.5 21 34.5H33C33.3978 34.5 33.7794 34.342 34.0607 34.0607C34.342 33.7794 34.5 33.3978 34.5 33V27C34.5 26.6022 34.342 26.2206 34.0607 25.9393C33.7794 25.658 33.3978 25.5 33 25.5ZM15 25.5H3C2.60218 25.5 2.22064 25.658 1.93934 25.9393C1.65804 26.2206 1.5 26.6022 1.5 27V33C1.5 33.3978 1.65804 33.7794 1.93934 34.0607C2.22064 34.342 2.60218 34.5 3 34.5H15C15.3978 34.5 15.7794 34.342 16.0607 34.0607C16.342 33.7794 16.5 33.3978 16.5 33V27C16.5 26.6022 16.342 26.2206 16.0607 25.9393C15.7794 25.658 15.3978 25.5 15 25.5ZM30 13.5C29.6022 13.5 29.2206 13.658 28.9393 13.9393C28.658 14.2206 28.5 14.6022 28.5 15V21C28.5 21.3978 28.658 21.7794 28.9393 22.0607C29.2206 22.342 29.6022 22.5 30 22.5H36V13.5H30ZM7.5 21V15C7.5 14.6022 7.34196 14.2206 7.06066 13.9393C6.77936 13.658 6.39782 13.5 6 13.5H0V22.5H6C6.39782 22.5 6.77936 22.342 7.06066 22.0607C7.34196 21.7794 7.5 21.3978 7.5 21Z" fill="#E33F3F"/>
</svg>
