<svg width="20" height="20" viewBox="0 0 20 20" fill="none" xmlns="http://www.w3.org/2000/svg">
<path d="M7.1416 12.7249L12.5916 7.2749" stroke="#E33F3F" stroke-linecap="round" stroke-linejoin="round"/>
<path d="M7.48326 8.64179C8.04935 8.64179 8.50824 8.1829 8.50824 7.61681C8.50824 7.05071 8.04935 6.5918 7.48326 6.5918C6.91717 6.5918 6.45825 7.05071 6.45825 7.61681C6.45825 8.1829 6.91717 8.64179 7.48326 8.64179Z" stroke="#E33F3F" stroke-linecap="round" stroke-linejoin="round"/>
<path d="M12.9334 13.4084C13.4995 13.4084 13.9584 12.9495 13.9584 12.3834C13.9584 11.8173 13.4995 11.3584 12.9334 11.3584C12.3673 11.3584 11.9084 11.8173 11.9084 12.3834C11.9084 12.9495 12.3673 13.4084 12.9334 13.4084Z" stroke="#E33F3F" stroke-linecap="round" stroke-linejoin="round"/>
<path d="M10.0001 18.3332C14.6025 18.3332 18.3334 14.6022 18.3334 9.99984C18.3334 5.39746 14.6025 1.6665 10.0001 1.6665C5.39771 1.6665 1.66675 5.39746 1.66675 9.99984C1.66675 14.6022 5.39771 18.3332 10.0001 18.3332Z" stroke="#E33F3F" stroke-linecap="round" stroke-linejoin="round"/>
</svg>
