<svg width="127" height="38" viewBox="0 0 127 38" fill="none" xmlns="http://www.w3.org/2000/svg">
<path d="M70.9288 15.0008H67.9528L63.1048 9.51278V15.0008H61.0568V3.80078H63.1048V8.76078L67.3288 3.80078H70.1448L65.3928 8.98478L70.9288 15.0008Z" fill="#E33F3F"/>
<path d="M72.4 3.80078H74.448V11.6088H74.464L79.904 3.80078H81.808V15.0008H79.76V7.20878H79.744L74.304 15.0008H72.4V3.80078Z" fill="#E33F3F"/>
<path d="M88.4596 3.80078C89.6756 3.80078 90.6089 4.12611 91.2596 4.77678C91.9103 5.41678 92.2356 6.25411 92.2356 7.28878C92.2356 8.35545 91.9103 9.21945 91.2596 9.88078C90.6089 10.5314 89.6756 10.8568 88.4596 10.8568H86.6036V15.0008H84.5556V3.80078H88.4596ZM88.2356 8.96878C88.8009 8.96878 89.2436 8.83012 89.5636 8.55278C89.8836 8.26478 90.0436 7.84878 90.0436 7.30478C90.0436 6.77145 89.8836 6.37145 89.5636 6.10478C89.2436 5.82745 88.8009 5.68878 88.2356 5.68878H86.6036V8.96878H88.2356Z" fill="#E33F3F"/>
<path d="M103.43 3.80078V15.0008H101.382V5.72078H96.1498V15.0008H94.1018V3.80078H103.43Z" fill="#E33F3F"/>
<path d="M106.164 3.80078H108.212V11.6088H108.228L113.668 3.80078H115.572V15.0008H113.524V7.20878H113.508L108.068 15.0008H106.164V3.80078Z" fill="#E33F3F"/>
<path d="M123.839 3.80078H125.887V15.0008H123.839V10.6328H120.767C118.623 10.6328 117.551 9.57678 117.551 7.46478V3.80078H119.599V7.33678C119.599 8.24345 120.079 8.69678 121.039 8.69678H123.839V3.80078Z" fill="#E33F3F"/>
<path d="M66.5128 34.2408C64.7315 34.2408 63.2755 33.7074 62.1448 32.6408C61.0248 31.5634 60.4648 30.1501 60.4648 28.4008C60.4648 26.6514 61.0248 25.2434 62.1448 24.1768C63.2755 23.0994 64.7315 22.5608 66.5128 22.5608C68.0062 22.5608 69.3395 22.9714 70.5128 23.7928L69.3288 25.5848C68.4435 24.9661 67.4995 24.6568 66.4968 24.6568C65.3875 24.6568 64.4755 24.9981 63.7608 25.6808C63.0568 26.3634 62.7048 27.2701 62.7048 28.4008C62.7048 29.5314 63.0568 30.4381 63.7608 31.1208C64.4755 31.8034 65.3875 32.1448 66.4968 32.1448C67.4995 32.1448 68.4435 31.8354 69.3288 31.2168L70.5128 33.0088C69.3395 33.8301 68.0062 34.2408 66.5128 34.2408Z" fill="#E33F3F"/>
<path d="M74.5417 32.0808H79.2137V34.0008H72.4937V22.8008H79.1337V24.7208H74.5417V26.9608H78.7337V28.8488H74.5417V32.0808Z" fill="#E33F3F"/>
<path d="M85.444 22.8008C86.66 22.8008 87.5933 23.1261 88.244 23.7768C88.8946 24.4168 89.22 25.2541 89.22 26.2888C89.22 27.3554 88.8946 28.2194 88.244 28.8808C87.5933 29.5314 86.66 29.8568 85.444 29.8568H83.588V34.0008H81.54V22.8008H85.444ZM85.22 27.9688C85.7853 27.9688 86.228 27.8301 86.548 27.5528C86.868 27.2648 87.028 26.8488 87.028 26.3048C87.028 25.7714 86.868 25.3714 86.548 25.1048C86.228 24.8274 85.7853 24.6888 85.22 24.6888H83.588V27.9688H85.22Z" fill="#E33F3F"/>
<path d="M97.1662 28.0648C97.8596 28.1714 98.4089 28.4594 98.8142 28.9288C99.2302 29.3874 99.4382 30.0221 99.4382 30.8328C99.4382 31.8674 99.0969 32.6568 98.4142 33.2008C97.7316 33.7341 96.8676 34.0008 95.8222 34.0008H91.0862V22.8008H95.5182C96.5316 22.8008 97.3422 23.0461 97.9502 23.5368C98.5689 24.0168 98.8782 24.7101 98.8782 25.6168C98.8782 26.8648 98.3076 27.6701 97.1662 28.0328V28.0648ZM95.1982 24.6888H93.1342V27.3768H95.1182C95.6409 27.3768 96.0409 27.2594 96.3182 27.0248C96.5956 26.7901 96.7342 26.4541 96.7342 26.0168C96.7342 25.5901 96.5956 25.2648 96.3182 25.0408C96.0409 24.8061 95.6676 24.6888 95.1982 24.6888ZM95.4702 32.1128C96.0249 32.1128 96.4622 31.9848 96.7822 31.7288C97.1022 31.4621 97.2622 31.0941 97.2622 30.6248C97.2622 30.1554 97.1022 29.7928 96.7822 29.5368C96.4622 29.2701 95.9982 29.1368 95.3902 29.1368H93.1342V32.1128H95.4702Z" fill="#E33F3F"/>
<path d="M101.664 22.8008H103.712V30.6088H103.728L109.168 22.8008H111.072V34.0008H109.024V26.2088H109.008L103.568 34.0008H101.664V22.8008Z" fill="#E33F3F"/>
<path d="M119.275 34.2408C117.494 34.2408 116.038 33.7074 114.907 32.6408C113.787 31.5634 113.227 30.1501 113.227 28.4008C113.227 26.6514 113.787 25.2434 114.907 24.1768C116.038 23.0994 117.494 22.5608 119.275 22.5608C120.769 22.5608 122.102 22.9714 123.275 23.7928L122.091 25.5848C121.206 24.9661 120.262 24.6568 119.259 24.6568C118.15 24.6568 117.238 24.9981 116.523 25.6808C115.819 26.3634 115.467 27.2701 115.467 28.4008C115.467 29.5314 115.819 30.4381 116.523 31.1208C117.238 31.8034 118.15 32.1448 119.259 32.1448C120.262 32.1448 121.206 31.8354 122.091 31.2168L123.275 33.0088C122.102 33.8301 120.769 34.2408 119.275 34.2408Z" fill="#E33F3F"/>
<path d="M22.9818 0.0233961C22.9742 0.091338 22.9522 0.15448 22.9158 0.212822C22.8976 0.2431 22.8888 0.275595 22.8896 0.310304C22.9283 2.6639 22.9253 5.01565 22.8805 7.36555C19.0557 8.45779 15.2055 9.55262 11.3299 10.65C10.6415 10.845 9.40349 10.8372 9.40349 9.83251C9.40425 8.50616 9.40387 7.18056 9.40235 5.85569C9.40121 5.39155 9.54458 5.10575 9.97812 4.93848C11.999 4.15936 16.2835 2.51657 22.8316 0.0101036C22.8771 -0.00688186 22.9271 -0.00245141 22.9818 0.0233961Z" fill="#9C272D"/>
<path d="M22.9841 0.0253906C26.4645 1.15456 29.0524 2.00605 30.7478 2.57986C31.2109 2.73605 31.3441 3.10272 31.3509 3.58016C31.3729 5.05715 31.3763 6.53452 31.3611 8.01226C31.352 8.98486 30.956 9.32937 29.9661 9.08899C27.6304 8.52182 25.2693 7.94801 22.8828 7.36755C22.9276 5.01764 22.9306 2.66589 22.8919 0.312299C22.8912 0.277589 22.8999 0.245095 22.9181 0.214816C22.9545 0.156475 22.9765 0.0933325 22.9841 0.0253906Z" fill="#B7272E"/>
<path d="M47.827 13.5361C41.1128 11.8619 36.5173 10.7113 34.0405 10.0844C33.4772 9.94257 33.3612 9.54599 33.3589 8.99877C33.3543 7.63919 33.3543 6.27961 33.3589 4.92004C33.3623 3.99285 33.7594 3.56194 34.7095 3.87432C39.6343 5.49164 44.5579 7.11116 49.4803 8.73291C49.8672 8.86141 49.9935 9.28124 49.9946 9.68003C49.9999 10.7243 50.0003 11.7685 49.9958 12.8127C49.9878 14.2805 48.6884 13.751 47.827 13.5361Z" fill="#B7272E"/>
<path d="M4.41489 7.08018C5.18979 6.79217 6.43804 6.79549 6.44259 7.91764C6.44714 9.12804 6.44676 10.3384 6.44145 11.5488C6.43917 12.0407 5.8543 12.2511 5.44126 12.3752C4.17518 12.7541 2.90721 13.1266 1.63734 13.4929C0.939817 13.6945 -0.00234561 13.3102 0.00789527 12.4627C0.0207912 11.4274 0.0340671 10.3923 0.0477216 9.35771C0.053411 8.92237 0.232059 8.70192 0.621212 8.54573C1.8797 8.04281 3.14426 7.5543 4.41489 7.08018Z" fill="#9C272D"/>
<path d="M22.8669 9.49023C22.8487 9.66194 22.917 9.77382 22.917 9.91893C22.9284 11.7216 22.9223 13.5235 22.8988 15.3247C22.8919 15.7689 22.9431 16.335 22.9215 16.8412C21.2951 17.1219 19.6699 17.401 18.0457 17.6787C17.4256 17.7851 16.5415 17.5757 16.5232 16.8246C16.4899 15.4392 16.4804 14.0538 16.4948 12.6684C16.5028 11.8232 16.4459 11.3956 17.3095 11.1375C19.1347 10.5924 20.9871 10.0434 22.8669 9.49023Z" fill="#9C272D"/>
<path d="M22.8664 9.49023C28.0111 10.739 33.174 11.9989 38.3551 13.2699C39.2381 13.4859 39.633 13.6033 39.5886 14.6169C39.5363 15.821 39.5579 17.0329 39.5624 18.2381C39.5658 18.936 39.3189 19.4644 38.5088 19.3348C33.3117 18.5077 28.1158 17.6765 22.921 16.8413C22.9426 16.335 22.8914 15.7689 22.8982 15.3247C22.9217 13.5235 22.9278 11.7216 22.9164 9.91893C22.9164 9.77382 22.8482 9.66194 22.8664 9.49023Z" fill="#B7272E"/>
<path d="M1.66962 20.8545C0.960722 20.9919 0.0629377 20.7382 0.0356286 19.8941C0.00452667 18.9163 0.00376761 17.9371 0.0333524 16.9564C0.0481448 16.4534 0.248412 16.1577 0.727458 16.0148C3.65408 15.1397 7.28314 14.071 11.6147 12.8089C12.3827 12.5852 13.5559 12.624 13.5559 13.6951C13.5559 15.0222 13.5574 16.3489 13.5604 17.6753C13.5616 18.6047 12.913 18.6778 12.1631 18.824C8.66604 19.5034 5.16821 20.1803 1.66962 20.8545Z" fill="#9C272D"/>
<path d="M42.1985 19.9278C41.831 19.8635 41.5738 19.3872 41.5727 19.0549C41.5689 17.8755 41.5697 16.6987 41.575 15.5245C41.5795 14.6006 41.881 14.1409 42.879 14.3713C44.9795 14.8565 47.0792 15.3443 49.1783 15.8346C49.828 15.9864 49.9884 16.2833 49.9918 16.9346C49.9956 17.9633 49.996 18.9917 49.993 20.0197C49.9907 20.7198 49.7131 21.2161 48.9131 21.0831C47.817 20.9022 45.5788 20.5171 42.1985 19.9278Z" fill="#B7272E"/>
<path d="M22.9066 18.9297C22.9165 18.9932 22.9116 19.0501 22.8918 19.1003C22.8797 19.1306 22.8736 19.1623 22.8736 19.1955L22.9135 26.51C19.0174 26.8165 15.1186 27.1211 11.2172 27.4239C10.5425 27.476 9.38752 27.4981 9.38525 26.541C9.38145 25.1933 9.37804 23.8459 9.375 22.4989C9.37387 21.8176 9.573 21.4465 10.266 21.3147C14.4829 20.5164 18.6965 19.7214 22.9066 18.9297Z" fill="#9C272D"/>
<path d="M22.908 18.9297C26.6691 19.5293 29.2327 19.9436 30.5989 20.1726C31.1758 20.2701 31.3454 20.6799 31.3522 21.2305C31.3674 22.48 31.3711 24.0379 31.3636 25.9041C31.3579 27.23 30.4772 27.024 29.4041 26.9531C27.2437 26.8106 25.0806 26.6629 22.9148 26.51L22.875 19.1955C22.875 19.1623 22.8811 19.1306 22.8932 19.1003C22.9129 19.0501 22.9179 18.9932 22.908 18.9297Z" fill="#B7272E"/>
<path d="M35.1004 27.3625C34.2584 27.2861 33.3617 27.3924 33.3583 26.2824C33.3545 24.8424 33.3545 23.4023 33.3583 21.9622C33.3595 21.23 33.5643 20.6529 34.437 20.7791C36.6491 21.0974 41.5226 21.8263 49.0576 22.9658C49.6994 23.0633 49.9918 23.3037 49.9941 23.9362C49.9994 25.1511 49.9998 26.3655 49.9952 27.5796C49.9929 28.2897 49.6914 28.6818 48.9165 28.6131C44.3104 28.2025 39.705 27.7857 35.1004 27.3625Z" fill="#B7272E"/>
<path d="M1.51826 28.2341C0.857157 28.2839 0.052678 28.0934 0.0310583 27.2947C-0.00762948 25.8251 -0.0049736 24.741 0.0390243 24.0423C0.0868151 23.2736 0.654615 23.1916 1.38399 23.0454C2.55752 22.8113 3.73598 22.5901 4.91938 22.3818C5.65558 22.2511 6.44072 22.5369 6.44185 23.3755C6.44489 24.5135 6.44527 25.6512 6.44299 26.7884C6.44185 27.6458 5.98784 27.8707 5.1845 27.9383C3.96318 28.0424 2.7411 28.141 1.51826 28.2341Z" fill="#9C272D"/>
<path d="M22.892 28.584C22.9094 28.6431 22.9049 28.6937 22.8783 28.7357C22.8594 28.766 22.8506 28.7989 22.8521 28.8343C22.9242 30.6725 22.9386 32.5106 22.8954 34.3487C22.8851 34.7597 22.9705 35.4077 22.8442 35.9771C21.107 35.9756 19.3778 35.9664 17.6566 35.9494C17.115 35.9439 16.529 35.627 16.5199 35.0333C16.4971 33.4101 16.4884 31.7869 16.4937 30.1636C16.496 29.2497 16.9932 29.0636 17.8569 28.9872C19.5318 28.8395 21.2102 28.7051 22.892 28.584Z" fill="#9C272D"/>
<path d="M22.8915 28.584C28.1986 28.9399 33.506 29.3044 38.8138 29.6773C39.3578 29.715 39.5592 30.1891 39.5592 30.692C39.5599 32.1055 39.5603 33.519 39.5603 34.9325C39.5603 35.3845 39.4272 35.8176 38.9618 35.9261C38.3712 36.0646 37.222 35.9671 36.6781 35.9693C32.2343 35.9856 27.7901 35.9856 23.3456 35.9693C23.1665 35.9686 22.9993 35.9712 22.8438 35.9771C22.9701 35.4077 22.8847 34.7597 22.895 34.3487C22.9382 32.5106 22.9238 30.6725 22.8517 28.8343C22.8502 28.7989 22.8589 28.766 22.8779 28.7357C22.9044 28.6937 22.909 28.6431 22.8915 28.584Z" fill="#B7272E"/>
<path d="M11.6607 29.4928C12.4152 29.433 13.5587 29.3688 13.5576 30.4499C13.5568 31.8302 13.5583 33.2138 13.5621 34.6007C13.5655 35.5843 13.2287 35.9477 12.2411 35.9488C8.51793 35.9547 4.79442 35.9558 1.07053 35.9521C0.56645 35.951 0.0111664 35.5101 0.00547707 34.964C-0.00893603 33.7182 0.00509722 32.4734 0.0475779 31.2298C0.0623703 30.7867 0.524349 30.4134 0.927158 30.379C4.50464 30.0726 8.0825 29.7772 11.6607 29.4928Z" fill="#9C272D"/>
<path d="M42.429 35.9692C41.9375 35.967 41.5824 35.5183 41.5813 35.0619C41.5745 33.6699 41.5726 32.2782 41.5756 30.8868C41.5768 29.8356 42.3915 29.9209 43.2472 29.9807C45.2309 30.1195 47.2149 30.2554 49.1994 30.3884C49.8252 30.4304 49.9902 30.9057 49.9925 31.4695C49.997 32.5965 49.9978 33.7242 49.9948 34.8526C49.9925 35.6158 49.7604 35.9548 48.9661 35.9581C45.887 35.9721 43.708 35.9758 42.429 35.9692Z" fill="#B7272E"/>
</svg>
